<svg width="144" height="138" viewBox="0 0 144 138" fill="none" xmlns="http://www.w3.org/2000/svg">
<g filter="url(#filter0_f_2250_285)">
<ellipse cx="32.0691" cy="28.096" rx="32.0691" ry="28.096" transform="matrix(0.991755 0.128145 -0.16796 0.985794 44.874 28.8501)" fill="#FFF9F3"/>
</g>
<g filter="url(#filter1_f_2250_285)">
<ellipse cx="51.5623" cy="48.871" rx="51.5623" ry="48.871" transform="matrix(0.991755 0.128145 -0.16796 0.985794 28.8711 13.8496)" fill="#FFF9F3"/>
</g>
<path d="M128.423 64.499C128.892 65.7629 129.31 67.0487 129.675 68.3545H129.676L129.194 68.4893C129.374 69.1317 129.541 69.7788 129.693 70.4307L130.179 70.3164C130.486 71.6255 130.739 72.9531 130.937 74.2969L130.443 74.3701C130.541 75.0298 130.625 75.6939 130.694 76.3613L131.19 76.3086C131.33 77.6422 131.414 78.9904 131.442 80.3516L130.944 80.3613C130.951 80.696 130.954 81.0319 130.954 81.3682C130.954 81.7044 130.951 82.0403 130.944 82.375L131.442 82.3838C131.414 83.7449 131.33 85.0932 131.19 86.4268L130.694 86.375C130.625 87.0424 130.541 87.7065 130.443 88.3662L130.937 88.4385C130.739 89.7823 130.486 91.1098 130.179 92.4189L129.693 92.3057C129.541 92.9575 129.374 93.6047 129.194 94.2471L129.675 94.3809C129.31 95.6866 128.892 96.9724 128.423 98.2363L127.955 98.0625C127.722 98.6899 127.477 99.3125 127.219 99.9287L127.679 100.12C127.156 101.368 126.583 102.592 125.961 103.791L125.519 103.562C125.211 104.155 124.89 104.743 124.559 105.324L124.993 105.571C124.324 106.744 123.606 107.89 122.845 109.008L122.433 108.727C122.056 109.279 121.669 109.825 121.271 110.363L121.671 110.66C120.869 111.744 120.023 112.799 119.137 113.822L118.76 113.495C118.322 114 117.875 114.498 117.417 114.987L117.781 115.328C116.861 116.313 115.9 117.265 114.903 118.183L114.565 117.816C114.074 118.269 113.573 118.713 113.063 119.148L113.388 119.527C112.364 120.402 111.306 121.242 110.214 122.046L109.918 121.645C109.379 122.041 108.833 122.429 108.278 122.807L108.56 123.219C107.448 123.977 106.304 124.697 105.132 125.38L104.882 124.949C104.304 125.285 103.719 125.613 103.128 125.93L103.363 126.369C102.177 127.005 100.964 127.601 99.7246 128.157L99.5205 127.702C98.9114 127.976 98.2961 128.24 97.6748 128.493L97.8623 128.954C96.6173 129.462 95.349 129.929 94.0586 130.354L93.9033 129.881C93.2686 130.09 92.6285 130.289 91.9834 130.478L92.123 130.955C90.8339 131.331 89.5247 131.666 88.1973 131.957L88.0918 131.471C87.4389 131.614 86.7807 131.746 86.1191 131.868L86.209 132.358C84.8897 132.601 83.5539 132.803 82.2031 132.959L82.1465 132.464C81.4831 132.541 80.8159 132.606 80.1455 132.661L80.1855 133.159C78.8494 133.269 77.5 133.335 76.1387 133.357L76.1309 132.859C75.7954 132.865 75.459 132.867 75.1221 132.867C74.7851 132.867 74.4488 132.865 74.1133 132.859L74.1055 133.357C72.7438 133.335 71.394 133.269 70.0576 133.159L70.0986 132.661C69.4282 132.606 68.761 132.541 68.0977 132.464L68.04 132.959C66.6892 132.803 65.3535 132.601 64.0342 132.358L64.125 131.868C63.4635 131.746 62.8061 131.614 62.1533 131.471L62.0459 131.957C60.7189 131.666 59.4099 131.332 58.1211 130.956L58.2607 130.478C57.6157 130.289 56.9755 130.09 56.3408 129.881L56.1846 130.354C54.8942 129.929 53.6258 129.462 52.3809 128.954L52.5693 128.493C51.948 128.24 51.3328 127.976 50.7236 127.702L50.5186 128.157C49.2799 127.601 48.0667 127.005 46.8809 126.369L47.1172 125.93C46.5257 125.613 45.9408 125.285 45.3633 124.949L45.1113 125.38C43.9393 124.697 42.7962 123.977 41.6846 123.219L41.9658 122.807C41.4114 122.429 40.8646 122.041 40.3262 121.645L40.0303 122.046C38.9383 121.242 37.8791 120.402 36.8555 119.527L37.1807 119.148C36.6712 118.713 36.1702 118.269 35.6787 117.816L35.3398 118.184C34.3428 117.266 33.3835 116.313 32.4629 115.328L32.8281 114.987C32.3705 114.498 31.9221 114 31.4844 113.495L31.1074 113.821C30.2211 112.798 29.3754 111.744 28.5732 110.66L28.9746 110.363C28.5763 109.825 28.188 109.279 27.8115 108.727L27.3994 109.008C26.638 107.89 25.9204 106.744 25.251 105.571L25.6855 105.324C25.354 104.743 25.0345 104.155 24.7266 103.562L24.2822 103.791C23.6606 102.592 23.0882 101.368 22.5654 100.12L23.0264 99.9287C22.7681 99.3125 22.522 98.6899 22.2891 98.0625L21.8213 98.2363C21.3519 96.9723 20.9329 95.6867 20.5684 94.3809L21.0498 94.2471C20.8705 93.6047 20.7046 92.9574 20.5518 92.3057L20.0645 92.4189C19.7575 91.1098 19.5045 89.7823 19.3066 88.4385L19.8008 88.3662C19.7036 87.7065 19.6206 87.0424 19.5508 86.375L19.0537 86.4268C18.9142 85.0932 18.83 83.7449 18.8018 82.3838L19.3008 82.375L19.29 81.3682C19.29 81.0319 19.2938 80.696 19.3008 80.3613L18.8018 80.3516C18.83 78.9905 18.9142 77.6422 19.0537 76.3086L19.5508 76.3613C19.6206 75.6939 19.7036 75.0298 19.8008 74.3701L19.3066 74.2969C19.5046 72.9531 19.7575 71.6255 20.0645 70.3164L20.5518 70.4307C20.7046 69.7789 20.8705 69.1316 21.0498 68.4893L20.5684 68.3545C20.9329 67.0487 21.3519 65.763 21.8213 64.499L22.2891 64.6738C22.522 64.0464 22.7681 63.4238 23.0264 62.8076L22.5654 62.6152C23.0882 61.3678 23.6606 60.1431 24.2822 58.9443L24.7266 59.1748C25.0345 58.581 25.3539 57.9931 25.6855 57.4121L25.252 57.165L25.251 57.1641C25.9204 55.9912 26.638 54.8453 27.3994 53.7275L27.8115 54.0098C28.188 53.4571 28.5763 52.9113 28.9746 52.373L28.5732 52.0752C29.3754 50.9912 30.221 49.937 31.1074 48.9141L31.4844 49.2412C31.9221 48.736 32.3705 48.2384 32.8281 47.749L32.4629 47.4072C33.3835 46.4227 34.3428 45.4698 35.3398 44.5518L35.3408 44.5527L35.6787 44.9199C36.1702 44.4674 36.6712 44.0234 37.1807 43.5879L36.8555 43.208C37.8791 42.333 38.9383 41.4931 40.0303 40.6895L40.3262 41.0918C40.8646 40.6955 41.4114 40.3077 41.9658 39.9297L41.6846 39.5166C42.7962 38.7586 43.9393 38.0379 45.1113 37.3555L45.3633 37.7871C45.9408 37.4509 46.5257 37.1236 47.1172 36.8066L46.8809 36.3662C48.0667 35.7308 49.2799 35.1341 50.5186 34.5781L50.7236 35.0342C51.3328 34.7608 51.948 34.4965 52.5693 34.2432L52.3809 33.7812C53.6258 33.2736 54.8942 32.8059 56.1846 32.3809L56.3408 32.8555C56.9755 32.6464 57.6157 32.447 58.2607 32.2588L58.1211 31.7793C59.4099 31.4031 60.7188 31.0685 62.0459 30.7773L62.1533 31.2656C62.8061 31.1224 63.4635 30.99 64.125 30.8682L64.0342 30.377C65.3535 30.1339 66.6893 29.9328 68.04 29.7764L68.0977 30.2725C68.761 30.1957 69.4282 30.1303 70.0986 30.0752L70.0576 29.5762C71.394 29.4663 72.7439 29.4002 74.1055 29.3779L74.1133 29.877C74.4488 29.8715 74.7851 29.8691 75.1221 29.8691C75.459 29.8691 75.7954 29.8715 76.1309 29.877L76.1387 29.3779C77.4999 29.4002 78.8495 29.4663 80.1855 29.5762L80.1455 30.0752C80.8159 30.1303 81.4831 30.1957 82.1465 30.2725L82.2031 29.7764C83.5539 29.9327 84.8897 30.1339 86.209 30.377L86.1191 30.8682C86.7806 30.99 87.4381 31.1224 88.0908 31.2656L88.1973 30.7773C89.5248 31.0686 90.8338 31.404 92.123 31.7803L91.9834 32.2588C92.6285 32.4471 93.2686 32.6464 93.9033 32.8555L94.0586 32.3809C95.3489 32.8059 96.6173 33.2736 97.8623 33.7812L97.6748 34.2432C98.2961 34.4965 98.9114 34.7608 99.5205 35.0342L99.7246 34.5781C100.964 35.1342 102.177 35.7306 103.363 36.3662L103.128 36.8066C103.719 37.1236 104.304 37.4509 104.882 37.7871L105.132 37.3545C106.304 38.0371 107.448 38.7583 108.56 39.5166L108.278 39.9297C108.833 40.3078 109.379 40.6955 109.918 41.0918L110.214 40.6895C111.306 41.493 112.364 42.3332 113.388 43.208L113.063 43.5879C113.573 44.0234 114.074 44.4674 114.565 44.9199L114.903 44.5527C115.9 45.4707 116.861 46.4227 117.781 47.4072L117.417 47.749C117.874 48.2382 118.322 48.7353 118.76 49.2402L119.137 48.9131C120.023 49.9362 120.869 50.991 121.671 52.0752L121.271 52.373C121.669 52.9113 122.056 53.4572 122.433 54.0098L122.845 53.7275C123.606 54.8453 124.324 55.9911 124.993 57.1641V57.165L124.559 57.4121C124.89 57.9931 125.211 58.581 125.519 59.1748L125.961 58.9443C126.582 60.1429 127.155 61.3671 127.678 62.6143L127.219 62.8076C127.477 63.4238 127.722 64.0464 127.955 64.6738L128.423 64.499Z" stroke="#FFF9F3" stroke-dasharray="2 4"/>
<defs>
<filter id="filter0_f_2250_285" x="35.8027" y="28.6528" width="72.3145" height="64.0073" filterUnits="userSpaceOnUse" color-interpolation-filters="sRGB">
<feFlood flood-opacity="0" result="BackgroundImageFix"/>
<feBlend mode="normal" in="SourceGraphic" in2="BackgroundImageFix" result="shape"/>
<feGaussianBlur stdDeviation="2" result="effect1_foregroundBlur_2250_285"/>
</filter>
<filter id="filter1_f_2250_285" x="0" y="0" width="143.6" height="137.268" filterUnits="userSpaceOnUse" color-interpolation-filters="sRGB">
<feFlood flood-opacity="0" result="BackgroundImageFix"/>
<feBlend mode="normal" in="SourceGraphic" in2="BackgroundImageFix" result="shape"/>
<feGaussianBlur stdDeviation="10" result="effect1_foregroundBlur_2250_285"/>
</filter>
</defs>
</svg>
