<svg width="524" height="463" viewBox="0 0 524 463" fill="none" xmlns="http://www.w3.org/2000/svg">
<ellipse cx="38.345" cy="39.714" rx="38.345" ry="39.714" transform="matrix(-0.918884 0.400973 -0.362599 -0.929425 510.899 379.821)" fill="#FFF9F3"/>
<path d="M425.756 296.084L479.065 323.175L427.872 377.691L400.677 318.296L425.756 296.084Z" fill="#FFF9F3"/>
<path d="M396.492 319.085L426.315 292.453L417.279 282.664L387.688 305.99L396.492 319.085Z" fill="#1C1C1C"/>
<path d="M391.027 301.2L411.529 281.741L402.416 278.324L388.191 289.499L391.027 301.2Z" fill="#1C1C1C"/>
<ellipse cx="39.2578" cy="38.8292" rx="39.2578" ry="38.8292" transform="matrix(-0.623998 0.786689 -0.744933 -0.660906 513.445 245.203)" fill="#FFF9F3"/>
<path d="M401.315 212.684L460.426 210.588L438.923 283.978L388.813 244.654L401.315 212.684Z" fill="#FFF9F3"/>
<path d="M385.448 247.404L400.22 209.194L387.925 204.943L371.912 240.109L385.448 247.404Z" fill="#1C1C1C"/>
<path d="M372.773 234.228L382.424 206.941L372.852 208.375L365.137 225.246L372.773 234.228Z" fill="#1C1C1C"/>
<ellipse cx="40.2962" cy="37.7711" rx="40.2962" ry="37.7711" transform="matrix(0.10883 0.993736 -0.992938 0.12163 431.384 108.475)" fill="#FFF9F3"/>
<path d="M331.999 172.295L371.174 125.432L406.818 192.382L345.372 203.868L331.999 172.295Z" fill="#FFF9F3"/>
<path d="M344.95 208.342L328.849 170.738L317.481 177.265L330.637 213.732L344.95 208.342Z" fill="#1C1C1C"/>
<path d="M327.19 209.029L315.075 182.864L309.483 191.206L315.772 208.726L327.19 209.029Z" fill="#1C1C1C"/>
<ellipse cx="38.345" cy="39.714" rx="38.345" ry="39.714" transform="matrix(-0.918884 0.400973 -0.362599 -0.929425 273.182 410.261)" fill="#FFF9F3"/>
<path d="M188.038 326.523L241.347 353.615L190.154 408.131L162.959 348.735L188.038 326.523Z" fill="#FFF9F3"/>
<path d="M158.773 349.525L188.596 322.893L179.56 313.103L149.969 336.43L158.773 349.525Z" fill="#1C1C1C"/>
<path d="M153.308 331.639L173.81 312.181L164.697 308.764L150.472 319.939L153.308 331.639Z" fill="#1C1C1C"/>
<ellipse cx="38.345" cy="39.714" rx="38.345" ry="39.714" transform="matrix(-0.918884 0.400973 -0.362599 -0.929425 273.182 410.261)" fill="#FFD253"/>
<path d="M188.038 326.523L241.347 353.615L190.154 408.131L162.959 348.735L188.038 326.523Z" fill="#FFD253"/>
<path d="M158.773 349.525L188.596 322.893L179.56 313.103L149.969 336.43L158.773 349.525Z" fill="#1C1C1C"/>
<path d="M153.308 331.639L173.81 312.181L164.697 308.764L150.472 319.939L153.308 331.639Z" fill="#1C1C1C"/>
<ellipse cx="38.345" cy="39.714" rx="38.345" ry="39.714" transform="matrix(-0.918884 0.400973 -0.362599 -0.929425 167.648 421.535)" fill="#FFF9F3"/>
<path d="M82.5052 337.797L135.814 364.889L84.6206 419.404L57.4256 360.009L82.5052 337.797Z" fill="#FFF9F3"/>
<path d="M53.2411 360.798L83.0636 334.167L74.0277 324.377L44.4371 347.704L53.2411 360.798Z" fill="#1C1C1C"/>
<path d="M47.7757 342.913L68.2776 323.454L59.1649 320.038L44.9397 331.212L47.7757 342.913Z" fill="#1C1C1C"/>
<ellipse cx="38.9597" cy="39.1227" rx="38.9597" ry="39.1227" transform="matrix(-0.815004 -0.572403 0.53387 -0.850227 121.898 338.488)" fill="#FFF9F3"/>
<path d="M139.945 217.013L148.51 278.904L77.1506 264.492L108.51 207.439L139.945 217.013Z" fill="#FFF9F3"/>
<path d="M105.551 204.211L143.102 215.473L145.725 202.076L110.895 189.17L105.551 204.211Z" fill="#1C1C1C"/>
<path d="M116.518 189.419L143.234 196.518L140.818 186.617L124.105 180.391L116.518 189.419Z" fill="#1C1C1C"/>
<ellipse cx="38.7012" cy="39.3736" rx="38.7012" ry="39.3736" transform="matrix(0.882892 0.461589 -0.424935 0.90911 63.8242 54.7495)" fill="#FFF9F3"/>
<path d="M60.4823 177.665L44.569 117.421L117.08 122.151L92.811 182.948L60.4823 177.665Z" fill="#FFF9F3"/>
<path d="M96.1328 185.754L57.5348 179.617L56.5387 193.257L92.6347 201.39L96.1328 185.754Z" fill="#1C1C1C"/>
<path d="M87.0275 201.895L59.6752 198.435L63.2584 207.933L80.5834 211.868L87.0275 201.895Z" fill="#1C1C1C"/>
<ellipse cx="38.1309" cy="39.9158" rx="38.1309" ry="39.9158" transform="matrix(-0.998781 0.0430384 -0.0385067 -0.99952 357.275 156.393)" fill="#FFF9F3"/>
<path d="M304.505 46.8204L345.773 91.6283L279.989 124.232L273.738 58.5714L304.505 46.8204Z" fill="#FFF9F3"/>
<path d="M269.552 57.7929L306.209 43.6143L300.902 31.1382L265.536 42.2966L269.552 57.7929Z" fill="#1C1C1C"/>
<path d="M270.227 39.0107L295.801 28.183L288.352 21.6639L271.363 26.9916L270.227 39.0107Z" fill="#1C1C1C"/>
<ellipse cx="38.5982" cy="39.4726" rx="38.5982" ry="39.4726" transform="matrix(-0.840713 0.547886 -0.501774 -0.861207 521.401 117.893)" fill="#FFD253"/>
<path d="M424.671 49.6647L481.396 67.3728L439.123 129.859L403.281 75.8399L424.671 49.6647Z" fill="#FFD253"/>
<path d="M399.269 77.328L424.672 45.9869L414.269 37.8552L388.595 65.8942L399.269 77.328Z" fill="#1C1C1C"/>
<path d="M391.165 60.6003L408.454 37.9188L398.942 36.0903L386.593 49.5313L391.165 60.6003Z" fill="#1C1C1C"/>
<ellipse cx="39.312" cy="38.7754" rx="39.312" ry="38.7754" transform="matrix(-0.709773 -0.698579 0.663333 -0.753836 339.059 458.943)" fill="#FFF9F3"/>
<path d="M375.535 342.185L374.473 404.726L306.278 378.238L345.99 327.335L375.535 342.185Z" fill="#FFF9F3"/>
<path d="M343.566 323.641L378.887 341.208L383.534 328.441L351.151 309.718L343.566 323.641Z" fill="#1C1C1C"/>
<path d="M356.66 310.931L381.931 322.528L381.068 312.344L365.534 303.327L356.66 310.931Z" fill="#1C1C1C"/>
<ellipse cx="39.312" cy="38.7754" rx="39.312" ry="38.7754" transform="matrix(-0.709773 -0.698579 0.663333 -0.753836 339.059 458.943)" fill="#FFF9F3"/>
<path d="M375.535 342.185L374.473 404.726L306.278 378.238L345.99 327.335L375.535 342.185Z" fill="#FFF9F3"/>
<path d="M343.566 323.641L378.887 341.208L383.534 328.441L351.151 309.718L343.566 323.641Z" fill="#1C1C1C"/>
<path d="M356.66 310.931L381.931 322.528L381.068 312.344L365.534 303.327L356.66 310.931Z" fill="#1C1C1C"/>
<ellipse cx="39.312" cy="38.7754" rx="39.312" ry="38.7754" transform="matrix(-0.709773 -0.698579 0.663333 -0.753836 279.364 385.662)" fill="#FFF9F3"/>
<path d="M315.839 268.904L314.777 331.445L246.582 304.957L286.293 254.054L315.839 268.904Z" fill="#FFF9F3"/>
<path d="M283.871 250.36L319.192 267.927L323.839 255.16L291.456 236.438L283.871 250.36Z" fill="#1C1C1C"/>
<path d="M296.965 237.65L322.235 249.248L321.373 239.063L305.839 230.046L296.965 237.65Z" fill="#1C1C1C"/>
</svg>
