<svg width="352" height="132" viewBox="0 0 352 132" fill="none" xmlns="http://www.w3.org/2000/svg">
<g clip-path="url(#clip0_2247_282)">
<rect width="355.943" height="109.826" transform="translate(12.4092 11.0854)" fill="white"/>
<path d="M127.995 54.266L126.147 63.044H119.415L117.567 71.756H124.299L122.451 80.534H115.653L113.541 90.5H104.433L106.545 80.534H99.9449L97.8329 90.5H88.7249L90.8369 80.534H84.1709L86.0189 71.756H92.7509L94.5989 63.044H87.9329L89.7149 54.266H96.5129L98.6249 44.3H107.733L105.621 54.266H112.221L114.333 44.3H123.441L121.329 54.266H127.995ZM101.859 71.756H108.459L110.307 63.044H103.707L101.859 71.756ZM168.88 76.376C168.88 79.984 167.67 83.086 165.25 85.682C162.874 88.234 159.486 89.906 155.086 90.698V97.76H144.46V90.764C140.148 90.016 136.694 88.366 134.098 85.814C131.546 83.218 130.138 79.896 129.874 75.848H141.754C141.886 77.432 142.612 78.686 143.932 79.61C145.296 80.534 147.144 80.996 149.476 80.996C154.272 80.996 156.67 79.522 156.67 76.574C156.67 75.254 155.988 74.308 154.624 73.736C153.26 73.12 151.104 72.57 148.156 72.086C144.768 71.514 141.952 70.854 139.708 70.106C137.508 69.314 135.594 67.95 133.966 66.014C132.338 64.034 131.524 61.284 131.524 57.764C131.524 54.112 132.668 51.098 134.956 48.722C137.288 46.346 140.456 44.806 144.46 44.102V37.04H155.086V44.168C159.09 44.96 162.192 46.588 164.392 49.052C166.636 51.472 167.868 54.508 168.088 58.16H156.208C156.076 56.796 155.438 55.74 154.294 54.992C153.194 54.2 151.698 53.804 149.806 53.804C147.914 53.804 146.418 54.156 145.318 54.86C144.262 55.564 143.734 56.532 143.734 57.764C143.734 59.172 144.438 60.184 145.846 60.8C147.254 61.416 149.476 62.01 152.512 62.582C155.856 63.242 158.628 63.968 160.828 64.76C163.028 65.508 164.92 66.806 166.504 68.654C168.088 70.502 168.88 73.076 168.88 76.376ZM215.071 54.266L213.223 63.044H206.491L204.643 71.756H211.375L209.527 80.534H202.729L200.617 90.5H191.509L193.621 80.534H187.021L184.909 90.5H175.801L177.913 80.534H171.247L173.095 71.756H179.827L181.675 63.044H175.009L176.791 54.266H183.589L185.701 44.3H194.809L192.697 54.266H199.297L201.409 44.3H210.517L208.405 54.266H215.071ZM188.935 71.756H195.535L197.383 63.044H190.783L188.935 71.756ZM245.463 97.628C239.831 97.628 234.991 96.506 230.943 94.262C226.895 92.018 223.793 88.872 221.637 84.824C219.525 80.732 218.469 75.958 218.469 70.502C218.469 65.178 219.657 60.514 222.033 56.51C224.409 52.462 227.753 49.338 232.065 47.138C236.377 44.894 241.327 43.772 246.915 43.772C252.767 43.772 257.827 44.96 262.095 47.336C266.407 49.668 269.663 52.748 271.863 56.576C274.107 60.404 275.229 64.474 275.229 68.786C275.229 72.394 274.657 75.408 273.513 77.828C272.369 80.248 270.829 82.03 268.893 83.174C266.957 84.318 264.801 84.89 262.425 84.89C260.269 84.89 258.509 84.45 257.145 83.57C255.781 82.69 254.769 81.7 254.109 80.6H253.779C252.987 81.832 251.887 82.866 250.479 83.702C249.071 84.494 247.267 84.89 245.067 84.89C241.107 84.89 238.071 83.592 235.959 80.996C233.891 78.356 232.857 75.034 232.857 71.03C232.857 68.478 233.297 66.146 234.177 64.034C235.101 61.922 236.443 60.25 238.203 59.018C239.963 57.786 242.075 57.17 244.539 57.17C246.255 57.17 247.663 57.412 248.763 57.896C249.907 58.38 250.963 59.062 251.931 59.942H252.261L252.921 57.5H259.323V73.868C259.323 75.144 259.609 76.134 260.181 76.838C260.753 77.498 261.501 77.828 262.425 77.828C263.965 77.828 265.109 77.19 265.857 75.914C266.605 74.638 266.979 72.438 266.979 69.314C266.979 66.454 266.275 63.66 264.867 60.932C263.503 58.204 261.303 55.96 258.267 54.2C255.275 52.396 251.491 51.494 246.915 51.494C242.779 51.494 239.171 52.33 236.091 54.002C233.055 55.674 230.723 57.962 229.095 60.866C227.511 63.726 226.719 66.938 226.719 70.502C226.719 76.662 228.303 81.436 231.471 84.824C234.639 88.212 239.303 89.906 245.463 89.906H256.683V97.628H245.463ZM246.255 77.828C247.839 77.828 249.181 77.278 250.281 76.178C251.381 75.034 251.931 73.318 251.931 71.03C251.931 68.742 251.381 67.048 250.281 65.948C249.181 64.804 247.839 64.232 246.255 64.232C244.583 64.232 243.219 64.826 242.163 66.014C241.107 67.158 240.579 68.83 240.579 71.03C240.579 73.23 241.107 74.924 242.163 76.112C243.219 77.256 244.583 77.828 246.255 77.828ZM291.967 74.132H283.123L282.133 49.844V44.3H292.957V49.844L291.967 74.132ZM287.545 90.83C285.961 90.83 284.575 90.28 283.387 89.18C282.243 88.036 281.671 86.628 281.671 84.956C281.671 83.284 282.243 81.898 283.387 80.798C284.575 79.654 285.961 79.082 287.545 79.082C289.129 79.082 290.493 79.654 291.637 80.798C292.825 81.898 293.419 83.284 293.419 84.956C293.419 86.628 292.825 88.036 291.637 89.18C290.493 90.28 289.129 90.83 287.545 90.83Z" fill="#1C1C1C"/>
</g>
<path d="M0.5 131.498V0.5H376.291V131.498H0.5Z" stroke="#FFF9F3" stroke-dasharray="2 4"/>
<defs>
<clipPath id="clip0_2247_282">
<rect width="355.943" height="109.826" fill="white" transform="translate(12.4092 11.0854)"/>
</clipPath>
</defs>
</svg>
